<?xml version="1.0" standalone="no"?>
<!DOCTYPE svg PUBLIC "-//W3C//DTD SVG 20010904//EN"
 "http://www.w3.org/TR/2001/REC-SVG-20010904/DTD/svg10.dtd">
<svg version="1.0" xmlns="http://www.w3.org/2000/svg"
 width="700.000000pt" height="700.000000pt" viewBox="0 0 700.000000 700.000000"
 preserveAspectRatio="xMidYMid meet">
<metadata>
Created by potrace 1.14, written by Peter Selinger 2001-2017
</metadata>
<g transform="translate(0.000000,700.000000) scale(0.100000,-0.100000)"
fill="#000000" stroke="none">
<path d="M455 5372 c-3 -21 -8 -62 -11 -92 -3 -30 -7 -66 -9 -80 -1 -14 -6
-50 -9 -80 -4 -30 -8 -66 -11 -80 -2 -14 -7 -50 -10 -80 -3 -30 -7 -68 -9 -85
-2 -16 -7 -59 -11 -95 -4 -36 -9 -73 -11 -83 -2 -10 -6 -45 -9 -78 -4 -33 -8
-68 -10 -77 -1 -9 -6 -51 -10 -92 -4 -41 -8 -77 -10 -80 -1 -3 -6 -36 -9 -75
-4 -38 -9 -81 -11 -95 -2 -14 -7 -47 -10 -75 -3 -27 -7 -66 -10 -85 -3 -19 -7
-60 -10 -90 -3 -30 -8 -66 -10 -80 -2 -14 -7 -50 -10 -80 -3 -30 -8 -66 -10
-80 -2 -14 -7 -54 -11 -90 -3 -36 -7 -72 -9 -80 -2 -8 -6 -44 -10 -80 -3 -36
-10 -92 -15 -125 -5 -33 -12 -88 -15 -123 -4 -35 -8 -71 -10 -80 -1 -9 -6 -46
-10 -82 -3 -36 -8 -76 -10 -90 -2 -14 -7 -47 -10 -75 -6 -51 -32 -272 -40
-335 -2 -19 -7 -60 -10 -90 -3 -30 -8 -66 -10 -80 -2 -14 -6 -45 -9 -70 -3
-25 -8 -63 -11 -85 -2 -22 -14 -119 -25 -215 -11 -96 -23 -191 -25 -210 -7
-46 -18 -148 -19 -180 l-1 -25 3498 -1 3497 -2 -5 42 c-2 22 -7 61 -10 86 -3
25 -7 61 -10 80 -3 19 -7 55 -10 80 -9 77 -16 132 -25 210 -5 41 -12 100 -15
130 -3 30 -8 66 -10 80 -2 14 -7 50 -10 80 -3 30 -8 66 -10 80 -2 14 -6 52
-10 85 -9 82 -14 124 -20 165 -7 50 -14 107 -20 165 -3 28 -7 66 -10 85 -3 19
-7 58 -10 85 -3 28 -8 66 -10 85 -6 41 -11 81 -20 165 -4 33 -8 71 -10 85 -2
14 -7 50 -10 80 -3 30 -8 66 -10 80 -3 23 -6 43 -20 170 -3 25 -7 56 -9 70 -3
14 -8 56 -11 95 -4 38 -8 72 -10 75 -1 3 -6 40 -10 83 -3 43 -8 88 -10 100 -2
12 -7 43 -9 69 -3 26 -8 62 -11 80 -2 18 -9 78 -15 133 -6 55 -13 111 -15 125
-2 14 -7 50 -10 80 -4 30 -9 66 -10 80 -2 14 -7 54 -10 90 -4 36 -9 72 -10 80
-2 8 -6 44 -10 80 -3 36 -8 72 -10 80 -2 8 -7 49 -10 90 -3 41 -8 82 -10 90
-2 8 -6 40 -10 70 -3 30 -8 71 -11 91 l-5 37 -3039 0 -3039 0 -6 -36z m2526
-107 c2 -13 2 -12 -5 -70 -14 -123 -17 -143 -22 -185 -4 -44 -12 -99 -19 -150
-2 -14 -6 -52 -10 -85 -3 -33 -8 -71 -10 -85 -2 -14 -7 -52 -10 -85 -12 -112
-40 -341 -60 -495 -2 -19 -7 -60 -10 -90 -4 -30 -8 -66 -10 -80 -3 -14 -7 -47
-9 -75 -3 -27 -8 -66 -10 -85 -3 -19 -8 -57 -11 -85 -3 -27 -10 -86 -16 -130
-12 -101 -17 -136 -24 -205 -4 -30 -8 -66 -10 -80 -4 -32 -14 -110 -21 -175
-3 -27 -7 -61 -9 -75 -2 -14 -6 -50 -10 -80 -3 -30 -8 -73 -11 -95 -3 -22 -7
-56 -9 -75 -2 -19 -9 -73 -15 -120 -18 -141 -19 -153 -25 -210 -3 -30 -7 -66
-10 -80 -2 -14 -7 -50 -10 -80 -3 -30 -8 -71 -11 -91 -2 -20 -6 -54 -9 -75 -2
-21 -9 -79 -15 -129 -6 -49 -12 -106 -15 -125 -13 -113 -16 -134 -20 -139 -2
-5 -2362 -6 -2399 -2 -4 1 -5 22 -1 49 12 84 13 96 20 157 3 33 8 71 10 85 2
14 11 88 20 165 9 77 18 149 20 161 2 11 6 52 10 90 4 38 9 77 11 87 2 10 6
48 10 85 3 36 7 74 9 83 2 9 6 38 9 65 3 27 13 108 21 179 9 72 18 148 21 170
2 22 6 56 9 75 2 19 7 55 10 80 3 25 7 61 10 80 2 19 7 60 10 90 3 30 8 71 10
90 3 19 8 55 11 80 2 25 7 61 9 80 3 19 7 58 10 85 6 54 13 109 20 165 3 19 7
53 9 75 14 123 18 152 21 175 4 26 15 116 20 160 1 14 5 50 9 80 4 30 9 71 11
90 3 19 11 89 20 155 8 66 17 145 20 175 3 30 7 66 10 80 2 14 7 54 10 90 4
36 9 74 11 85 2 10 6 49 9 85 4 36 8 72 11 80 3 13 146 15 1204 15 793 0 1200
-3 1201 -10z m2852 6 c14 -1 -17 -69 -159 -348 -240 -473 -415 -817 -644
-1268 -106 -209 -208 -408 -226 -443 -17 -35 -35 -59 -38 -54 -7 12 -81 157
-714 1402 -90 179 -209 411 -263 517 -54 105 -94 193 -89 195 9 3 2088 2 2133
-1z m-2057 -1793 c92 -178 194 -375 227 -438 33 -63 83 -160 112 -215 29 -55
85 -163 125 -240 160 -309 215 -416 280 -540 109 -209 160 -309 160 -315 0 -6
-1317 -6 -1324 1 -3 2 3 72 14 154 10 83 21 177 24 210 4 33 9 71 11 85 2 14
6 48 10 75 8 75 15 132 25 210 5 39 12 97 15 130 4 32 8 66 10 75 2 13 15 125
20 175 4 37 16 130 20 155 2 14 7 52 10 85 3 33 15 132 26 220 22 178 23 190
39 325 7 52 13 104 15 115 2 11 4 28 4 38 1 9 3 17 5 17 2 0 80 -145 172 -322z
m2178 217 c4 -39 9 -81 11 -95 2 -14 6 -47 9 -75 4 -27 8 -66 11 -85 2 -19 7
-57 10 -85 3 -27 10 -84 15 -125 5 -41 12 -97 15 -125 3 -27 7 -66 10 -85 6
-41 9 -74 30 -252 9 -73 18 -144 20 -158 2 -14 7 -52 10 -85 3 -33 8 -73 10
-90 2 -16 7 -52 10 -80 3 -27 8 -63 10 -80 2 -16 9 -73 15 -125 6 -52 13 -108
15 -125 5 -42 16 -124 20 -160 15 -115 15 -133 3 -137 -22 -7 -1307 -2 -1314
5 -4 4 -2 12 3 19 9 12 73 134 253 483 37 72 95 184 130 250 34 66 90 174 125
240 67 129 147 282 270 520 43 83 101 195 130 250 29 55 76 146 106 203 59
114 62 114 73 -3z"/>
</g>
</svg>
