<?xml version="1.0" encoding="UTF-8" standalone="no"?>
<!-- Created with Inkscape (http://www.inkscape.org/) -->

<svg
   version="1.1"
   id="svg2"
   width="410.08932"
   height="87.839996"
   viewBox="0 0 410.08932 87.839996"
   xmlns="http://www.w3.org/2000/svg"
   xmlns:svg="http://www.w3.org/2000/svg">
  <defs
     id="defs6">
    <clipPath
       clipPathUnits="userSpaceOnUse"
       id="clipPath48">
      <path
         d="m 662.216,151.468 h 379.568 V 288.532 H 662.216 Z"
         id="path46" />
    </clipPath>
    <clipPath
       clipPathUnits="userSpaceOnUse"
       id="clipPath60">
      <path
         d="m 824.339,728.5 h 728.322 V 991.501 H 824.339 Z"
         id="path58" />
    </clipPath>
    <clipPath
       clipPathUnits="userSpaceOnUse"
       id="clipPath86">
      <path
         d="m 662.216,471.469 h 379.568 V 608.532 H 662.216 Z"
         id="path84" />
    </clipPath>
    <clipPath
       clipPathUnits="userSpaceOnUse"
       id="clipPath106">
      <path
         d="m 1338.607,471.469 h 379.568 v 137.063 h -379.568 z"
         id="path104" />
    </clipPath>
    <clipPath
       clipPathUnits="userSpaceOnUse"
       id="clipPath126">
      <path
         d="m 1338.607,151.468 h 379.568 v 137.064 h -379.568 z"
         id="path124" />
    </clipPath>
  </defs>
  <g
     id="g8"
     transform="matrix(1.3333333,0,0,-1.3333333,-930.95491,337.48119)">
    <g
       id="g42">
      <g
         id="g44"
         clip-path="url(#clipPath48)">
        <g
           id="g50"
           transform="translate(905.7952,238.1989)">
          <path
             d="m 0,0 h -16.36 v 14.333 h -7.48 v -36.001 h 7.48 V -6.563 H 0 V -21.668 H 7.479 V 14.333 H 0 Z m 14.573,-21.668 h 25.094 v 6.611 h -17.71 v 8.591 h 15.346 v 6.369 H 21.957 V 7.77 h 17.71 v 6.563 H 14.573 Z m 38.558,36.001 h -7.529 v -36.001 h 24.612 v 6.611 H 53.131 Z m 29.774,-29.39 v 29.39 h -7.527 v -36.001 h 24.61 v 6.611 z m -186.949,29.39 v -36.001 h 7.48 v 36.001 h -3.74 z m -26.229,-34.751 10.239,19.696 2.376,-19.696 z m -14.204,0 2.376,19.696 10.239,-19.696 z m -30.214,0 4.042,33.501 h 22.734 l -4.042,-33.501 z m 53.837,33.501 -10.214,-20.092 -10.213,20.092 z m 6.484,1.25 h -57.387 l -4.343,-36.001 h 66.073 z m -64.593,-1.25 -4.041,-33.501 h -9.89 l 4.042,33.501 z m -15.34,-34.751 h 12.407 l 4.343,36.001 h -12.408 z m -2.863,34.751 -4.041,-33.501 h -4.962 l 4.041,33.501 z m -10.413,-34.751 h 7.48 l 4.343,36.001 h -7.48 z M -91.303,7.576 h 11.605 v -29.244 h 7.528 V 7.576 h 11.606 v 6.757 h -30.739 z m 50.573,7.336 c 3.909,0 7.867,-0.917 10.713,-2.558 V 4.729 c -2.751,1.786 -6.129,3.088 -10.278,3.088 -7.094,0 -11.39,-4.584 -11.39,-11.484 0,-6.901 4.971,-11.486 11.679,-11.486 4.247,0 7.238,1.303 9.989,3.089 v -7.625 c -2.846,-1.641 -6.804,-2.558 -10.713,-2.558 -11.147,0 -18.724,7.625 -18.724,18.58 0,10.954 7.963,18.579 18.724,18.579 M 94.687,-38.779 h -2.721 v -4.331 h 2.721 c 1.562,0 2.32,0.899 2.32,2.154 0,1.302 -0.758,2.177 -2.32,2.177 m -2.721,-6.91 v -5.042 H 88.96 v 14.532 h 5.917 c 3.076,0 5.111,-1.656 5.111,-4.757 0,-3.077 -2.035,-4.733 -5.111,-4.733 z m -57.169,9.49 h 3.194 l -5.277,-9.018 v -5.514 h -3.006 v 5.514 l -5.231,9.018 h 3.29 l 3.527,-6.153 z m -25.675,0 V -38.85 H 2.235 v -3.171 h 6.248 v -2.58 H 2.235 v -3.456 h 6.887 v -2.674 h -9.869 v 14.532 z m 43.326,0.237 c 1.586,0 2.841,-0.426 3.787,-1.136 v -3.053 c -1.112,0.97 -2.272,1.42 -3.644,1.42 -2.604,0 -4.308,-1.87 -4.308,-4.734 0,-2.84 1.704,-4.709 4.308,-4.709 1.372,0 2.532,0.426 3.644,1.396 v -3.053 c -0.946,-0.71 -2.201,-1.136 -3.787,-1.136 -4.212,0 -7.218,3.006 -7.218,7.502 0,4.497 3.006,7.503 7.218,7.503 m -60.057,0 c 1.586,0 2.84,-0.426 3.788,-1.136 v -3.053 c -1.113,0.97 -2.273,1.42 -3.646,1.42 -2.602,0 -4.307,-1.87 -4.307,-4.734 0,-2.84 1.705,-4.709 4.307,-4.709 1.373,0 2.533,0.426 3.646,1.396 v -3.053 c -0.948,-0.71 -2.202,-1.136 -3.788,-1.136 -4.212,0 -7.218,3.006 -7.218,7.502 0,4.497 3.006,7.503 7.218,7.503 m 72.977,-2.698 c -2.295,0 -3.786,-1.964 -3.786,-4.805 0,-2.84 1.491,-4.803 3.786,-4.803 2.319,0 3.835,1.963 3.835,4.803 0,2.841 -1.516,4.805 -3.835,4.805 m 0,-12.307 c -4.047,0 -6.863,3.171 -6.863,7.502 0,4.356 2.816,7.503 6.863,7.503 4.048,0 6.888,-3.147 6.888,-7.503 0,-4.331 -2.84,-7.502 -6.888,-7.502 m -89.233,12.307 c -2.296,0 -3.787,-1.964 -3.787,-4.805 0,-2.84 1.491,-4.803 3.787,-4.803 2.319,0 3.834,1.963 3.834,4.803 0,2.841 -1.515,4.805 -3.834,4.805 m 0,-12.307 c -4.047,0 -6.864,3.171 -6.864,7.502 0,4.356 2.817,7.503 6.864,7.503 4.047,0 6.887,-3.147 6.887,-7.503 0,-4.331 -2.84,-7.502 -6.887,-7.502 m 101.869,8.141 h 2.793 c 1.514,0 2.296,0.805 2.296,2.012 0,1.23 -0.782,2.035 -2.296,2.035 h -2.793 z m 0,-2.484 v -5.421 h -3.005 v 14.532 h 5.987 c 3.053,0 5.088,-1.633 5.088,-4.615 0,-2.32 -1.277,-3.787 -3.312,-4.284 l 3.834,-5.633 h -3.409 l -3.597,5.421 z m -62.897,2.484 H 17.9 c 1.515,0 2.296,0.805 2.296,2.012 0,1.23 -0.781,2.035 -2.296,2.035 h -2.793 z m 0,-2.484 v -5.421 h -3.005 v 14.532 h 5.988 c 3.052,0 5.088,-1.633 5.088,-4.615 0,-2.32 -1.278,-3.787 -3.314,-4.284 l 3.834,-5.633 h -3.407 l -3.598,5.421 z m -56.081,2.484 h 2.793 c 1.515,0 2.295,0.805 2.295,2.012 0,1.23 -0.78,2.035 -2.295,2.035 h -2.793 z m 0,-2.484 v -5.421 h -3.006 v 14.532 h 5.988 c 3.053,0 5.089,-1.633 5.089,-4.615 0,-2.32 -1.279,-3.787 -3.314,-4.284 l 3.834,-5.633 h -3.408 l -3.597,5.421 z m -8.802,-2.202 v 2.202 h -2.461 v 2.484 h 5.207 v -6.082 c -1.42,-1.445 -3.337,-2.06 -5.254,-2.06 -4.402,0 -7.171,3.077 -7.171,7.48 0,4.496 3.124,7.525 7.478,7.525 1.658,0 3.124,-0.449 4.165,-1.207 v -3.029 c -1.182,0.947 -2.484,1.468 -4.165,1.468 -2.603,0 -4.425,-1.894 -4.425,-4.757 0,-2.817 1.609,-4.781 4.189,-4.781 0.946,0 1.799,0.236 2.437,0.757"
             style="fill:#202621;fill-opacity:1;fill-rule:nonzero;stroke:none"
             id="path52" />
        </g>
      </g>
    </g>
  </g>
</svg>
