<?xml version="1.0" encoding="UTF-8" standalone="no"?>
<!-- Created with Inkscape (http://www.inkscape.org/) -->

<svg
   version="1.1"
   id="svg2"
   width="786.88782"
   height="168.54733"
   viewBox="0 0 786.88781 168.54733"
   xmlns="http://www.w3.org/2000/svg"
   xmlns:svg="http://www.w3.org/2000/svg">
  <defs
     id="defs6">
    <clipPath
       clipPathUnits="userSpaceOnUse"
       id="clipPath48">
      <path
         d="m 662.216,151.468 h 379.568 V 288.532 H 662.216 Z"
         id="path46" />
    </clipPath>
    <clipPath
       clipPathUnits="userSpaceOnUse"
       id="clipPath60">
      <path
         d="m 824.339,728.5 h 728.322 V 991.501 H 824.339 Z"
         id="path58" />
    </clipPath>
    <clipPath
       clipPathUnits="userSpaceOnUse"
       id="clipPath86">
      <path
         d="m 662.216,471.469 h 379.568 V 608.532 H 662.216 Z"
         id="path84" />
    </clipPath>
    <clipPath
       clipPathUnits="userSpaceOnUse"
       id="clipPath106">
      <path
         d="m 1338.607,471.469 h 379.568 v 137.063 h -379.568 z"
         id="path104" />
    </clipPath>
    <clipPath
       clipPathUnits="userSpaceOnUse"
       id="clipPath126">
      <path
         d="m 1338.607,151.468 h 379.568 v 137.064 h -379.568 z"
         id="path124" />
    </clipPath>
  </defs>
  <g
     id="g8"
     transform="matrix(1.3333333,0,0,-1.3333333,-1191.2225,1231.378)">
    <g
       id="g54">
      <g
         id="g56"
         clip-path="url(#clipPath60)">
        <g
           id="g62"
           transform="translate(1473.4108,820.51)">
          <path
             d="M 0,0 H -5.221 V -8.31 H 0 c 2.997,0 4.452,1.725 4.452,4.133 C 4.452,-1.679 2.997,0 0,0 m -5.221,-13.259 v -9.673 h -5.768 V 4.951 H 0.365 c 5.902,0 9.807,-3.178 9.807,-9.128 0,-5.904 -3.905,-9.082 -9.807,-9.082 z m -109.697,18.21 h 6.129 l -10.126,-17.303 v -10.58 h -5.768 v 10.58 L -134.72,4.951 h 6.312 l 6.768,-11.807 z m -49.266,0 v -5.086 h -13.215 v -6.086 h 11.989 v -4.949 h -11.989 v -6.632 h 13.215 v -5.13 h -18.937 V 4.951 Z m 83.135,0.455 c 3.043,0 5.451,-0.817 7.267,-2.179 v -5.86 c -2.134,1.863 -4.36,2.725 -6.993,2.725 -4.996,0 -8.266,-3.587 -8.266,-9.083 0,-5.449 3.27,-9.035 8.266,-9.035 2.633,0 4.859,0.817 6.993,2.677 v -5.856 c -1.816,-1.363 -4.224,-2.18 -7.267,-2.18 -8.082,0 -13.85,5.767 -13.85,14.394 0,8.629 5.768,14.397 13.85,14.397 m -115.239,0 c 3.043,0 5.45,-0.817 7.269,-2.179 v -5.86 c -2.136,1.863 -4.362,2.725 -6.996,2.725 -4.993,0 -8.265,-3.587 -8.265,-9.083 0,-5.449 3.272,-9.035 8.265,-9.035 2.634,0 4.86,0.817 6.996,2.677 v -5.856 c -1.819,-1.363 -4.226,-2.18 -7.269,-2.18 -8.082,0 -13.85,5.767 -13.85,14.394 0,8.629 5.768,14.397 13.85,14.397 m 140.03,-5.177 c -4.403,0 -7.264,-3.769 -7.264,-9.22 0,-5.449 2.861,-9.217 7.264,-9.217 4.45,0 7.359,3.768 7.359,9.217 0,5.451 -2.909,9.22 -7.359,9.22 m 0,-23.614 c -7.765,0 -13.169,6.084 -13.169,14.394 0,8.358 5.404,14.397 13.169,14.397 7.768,0 13.217,-6.039 13.217,-14.397 0,-8.31 -5.449,-14.394 -13.217,-14.394 M -227.48,0.229 c -4.406,0 -7.267,-3.769 -7.267,-9.22 0,-5.449 2.861,-9.217 7.267,-9.217 4.45,0 7.357,3.768 7.357,9.217 0,5.451 -2.907,9.22 -7.357,9.22 m 0,-23.614 c -7.765,0 -13.171,6.084 -13.171,14.394 0,8.358 5.406,14.397 13.171,14.397 7.765,0 13.215,-6.039 13.215,-14.397 0,-8.31 -5.45,-14.394 -13.215,-14.394 m 195.468,15.62 h 5.36 c 2.905,0 4.405,1.544 4.405,3.86 0,2.361 -1.5,3.905 -4.405,3.905 h -5.36 z m 0,-4.767 v -10.4 h -5.766 V 4.951 h 11.488 c 5.858,0 9.763,-3.133 9.763,-8.856 0,-4.451 -2.45,-7.265 -6.355,-8.219 l 7.357,-10.808 h -6.541 l -6.902,10.4 z M -152.7,-7.765 h 5.36 c 2.907,0 4.405,1.544 4.405,3.86 0,2.361 -1.498,3.905 -4.405,3.905 h -5.36 z m 0,-4.767 v -10.4 h -5.766 V 4.951 h 11.49 c 5.856,0 9.763,-3.133 9.763,-8.856 0,-4.451 -2.452,-7.265 -6.359,-8.219 l 7.357,-10.808 h -6.538 l -6.903,10.4 z m -107.609,4.767 h 5.359 c 2.907,0 4.404,1.544 4.404,3.86 0,2.361 -1.497,3.905 -4.404,3.905 h -5.359 z m 0,-4.767 v -10.4 h -5.768 V 4.951 h 11.49 c 5.858,0 9.765,-3.133 9.765,-8.856 0,-4.451 -2.454,-7.265 -6.359,-8.219 l 7.356,-10.808 h -6.539 l -6.902,10.4 z m -16.89,-4.224 v 4.224 h -4.722 v 4.767 h 9.991 v -11.671 c -2.724,-2.771 -6.403,-3.951 -10.081,-3.951 -8.447,0 -13.76,5.904 -13.76,14.351 0,8.628 5.995,14.44 14.349,14.44 3.181,0 5.994,-0.862 7.992,-2.316 v -5.812 c -2.268,1.817 -4.766,2.816 -7.992,2.816 -4.995,0 -8.491,-3.634 -8.491,-9.128 0,-5.404 3.088,-9.174 8.038,-9.174 1.815,0 3.452,0.453 4.676,1.454"
             style="fill:#202621;fill-opacity:1;fill-rule:nonzero;stroke:none"
             id="path64" />
        </g>
        <g
           id="g66"
           transform="translate(927.2229,922.4221)">
          <path
             d="M 0,0 -8.333,-69.078 H 15.474 L 23.808,0 Z m -25.473,0 -8.333,-69.078 h 14.352 L -11.12,0 Z m 60.402,0 h 110.116 l 8.333,-69.078 H 26.596 Z"
             style="fill:#ffc70a;fill-opacity:1;fill-rule:nonzero;stroke:none"
             id="path68" />
        </g>
        <g
           id="g70"
           transform="translate(1291.7234,894.9205)">
          <path
             d="m 0,0 h -31.392 v 27.502 h -14.353 v -69.079 h 14.353 v 28.984 H 0 V -41.577 H 14.351 V 27.502 H 0 Z m 27.963,-41.577 h 48.151 v 12.686 H 42.132 v 16.483 H 71.578 V -0.186 H 42.132 V 14.908 H 76.114 V 27.502 H 27.963 Z m 73.986,69.079 H 87.502 v -69.079 h 47.226 v 12.686 h -32.779 z m 57.131,-56.393 v 56.393 h -14.443 v -69.079 h 47.222 v 12.686 z m -358.722,56.393 v -69.079 h 14.353 v 69.079 h -7.177 z m -51.576,-69.079 20.894,40.192 4.849,-40.192 h 14.353 l -8.334,69.079 h -11.221 l -20.819,-40.952 -20.817,40.952 h -11.221 l -8.333,-69.079 h 14.351 l 4.849,40.192 20.893,-40.192 z m 76.024,56.114 h 22.268 v -56.114 h 14.445 v 56.114 h 22.269 v 12.965 h -58.982 z m 97.04,14.076 c 7.501,0 15.096,-1.76 20.557,-4.908 V 9.074 C -62.876,12.501 -69.358,15 -77.319,15 -90.931,15 -99.174,6.204 -99.174,-7.037 c 0,-13.242 9.538,-22.038 22.41,-22.038 8.149,0 13.888,2.499 19.167,5.926 V -37.78 c -5.461,-3.149 -13.056,-4.908 -20.557,-4.908 -21.389,0 -35.928,14.631 -35.928,35.651 0,21.019 15.28,35.65 35.928,35.65"
             style="fill:#e41d34;fill-opacity:1;fill-rule:nonzero;stroke:none"
             id="path72" />
        </g>
      </g>
    </g>
  </g>
</svg>
