<?xml version="1.0" encoding="UTF-8" standalone="no"?>
<!-- Created with Inkscape (http://www.inkscape.org/) -->

<svg
   version="1.1"
   id="svg2"
   width="490"
   height="616"
   viewBox="0 0 490 616"
   xmlns="http://www.w3.org/2000/svg"
   xmlns:svg="http://www.w3.org/2000/svg">
  <defs
     id="defs6" />
  <g
     id="g8">
    <g
       id="g2782">
      <rect
         id="rect215"
         width="317.1973"
         height="626.57013"
         x="6.4994159"
         y="5.7507691"
         transform="matrix(1,0,0.25038,0.96814764,0,0)"
         fill="#ffff00" />
      <path
         id="rect2173"
         d="M 17.630859 4.7460938 L 103.78516 66.912109 L 279.61328 66.912109 L 318.04297 4.7460938 L 17.630859 4.7460938 z "
         fill="#ff9900" />
      <path
         id="rect2527"
         d="M 7.1394677,18.281529 7.1406691,618.72343 63.030649,566.45299 69.148709,79.152039 8.455874,18.281529 Z"
         transform="matrix(1,0,0.25038,0.96814764,0,0)"
         fill="#ff9900" />
      <path
         d="M 328.36932,11.637595 481.87836,605.3524 414.65304,551.4414 293.43785,68.881761 Z"
         id="path2535"
         fill="#ff9900" />
      <path
         id="rect2173-7"
         d="m 471.89791,612.28609 -72.26662,-55.81121 -189.7158,-0.0437 -38.42969,55.85487 z"
         fill="#ff9900" />
      <g
         id="path2559">
        <path
           d="M 287.27148,115.23438 242.48047,272.40234 199.9668,116.19727 116.71094,115.59961 c 0,0 -94.717596,361.19707 -95.712893,361.12695 l 95.701173,0.28321 47.04101,-234.78711 54.14258,234.65429 47.42578,-0.34765 57.07813,-232.8418 46.27539,234.98242 91.04687,-1.59765 -92.67578,-361.5 z"
           id="path2772"
           fill="#ffffff" />
        <path
           d="m 123.23954,124.1464 70.21885,0.50471 48.8344,179.42467 51.38632,-180.314 66.75192,0.28331 88.37258,344.71677 -73.17663,1.28403 -52.3348,-265.75021 -64.66365,263.78301 -33.99579,0.24807 -61.47797,-266.44493 -53.41775,266.60744 -77.701229,-0.22962 z"
           id="path2770"
           fill="#ff0000" />
      </g>
    </g>
  </g>
</svg>
